<svg xmlns="http://www.w3.org/2000/svg" width="141.544" height="18.326" viewBox="0 0 141.544 18.326">
  <g id="brand-icon2" transform="translate(0)" opacity="0.683">
    <path id="Path_934" data-name="Path 934" d="M102.421,90.361v5.667h-7.86V90.305a2.055,2.055,0,0,1,1.667-2.186h4.136A2.179,2.179,0,0,1,102.421,90.361Zm35.224-2.317H140.5a2.037,2.037,0,0,1,2.073,2.03v8.263a2.049,2.049,0,0,1-2.053,2.045h-2.857a2.049,2.049,0,0,1-2.051-2.045V90.1A2.06,2.06,0,0,1,137.645,88.044Zm-48.27,1.985v13.265h4.986V99.367h8V103.3h5.128V90.122c-.061-3.316-1.955-5.105-4.573-5.105H93.448c-2.705,0-4.074,2.34-4.074,5.012Zm58.3,8.989V89.276a4.255,4.255,0,0,0-4.255-4.26h-8.608a4.261,4.261,0,0,0-4.268,4.253v9.776a4.26,4.26,0,0,0,4.268,4.252l.016-.016h8.59A4.279,4.279,0,0,0,147.674,99.018ZM14.85,96.039l.226,0H21.9a2.041,2.041,0,0,1,1.937,1.8,1.908,1.908,0,0,1-1.995,2.375H11.425v3.073H22.159l2.388,0a4.534,4.534,0,0,0,1.438-.363,4.627,4.627,0,0,0,2.428-4.209c.014-.527.017-.972.01-1.5-.045-3.715-1.092-5.162-5.1-5.162H17.439c-1.477-.034-1.842-1.243-1.808-2.25.064-1.941,1.647-1.693,3.277-1.693h9.029V85.028H14.749a4.916,4.916,0,0,0-1.3.212c-1.738.637-2.489,2.629-2.564,4.9C10.793,92.928,11.8,95.928,14.85,96.039ZM122.466,91.17V103.3h5.18V90.048c0-3.131-1.792-5.042-4.98-5.042H110.478V103.3h4.986V88.1h4.851C122.1,88.1,122.466,89.738,122.466,91.17ZM78.942,88c1.1.181,2.358.339,2.358,2.543V103.3h5.034V90.769c-.056-2.661.074-5.551-4.179-5.753H62.644v18.272H67.72V88.029h4.3V103.3h4.94V88Zm-25.73-2.985V103.3h5.341V85.011Zm-16.628.013H31.557v18.3h5.027V99.24h7.541V103.3h5.027V85H44.125V95.76H36.584ZM150.66,88.662a1.528,1.528,0,1,1,1.528-1.529A1.528,1.528,0,0,1,150.66,88.662Zm-.456-1.656v-.57h.555c.261,0,.312.167.312.279,0,.21-.114.291-.345.291Zm.456,1.889a1.762,1.762,0,1,0-1.762-1.762A1.762,1.762,0,0,0,150.66,88.9Zm-.893-.7h.437v-.834h.459c.33,0,.348.113.348.4a1.378,1.378,0,0,0,.049.43h.492v-.056c-.094-.035-.094-.113-.094-.424,0-.4-.1-.463-.271-.54a.508.508,0,0,0,.329-.507.6.6,0,0,0-.67-.6h-1.079Z" transform="translate(-10.878 -85.001)" fill="gray" fill-rule="evenodd"/>
  </g>
</svg>
