<svg xmlns="http://www.w3.org/2000/svg" xmlns:xlink="http://www.w3.org/1999/xlink" width="141.543" height="25.038" viewBox="0 0 141.543 25.038">
  <defs>
    <clipPath id="clip-path">
      <rect id="Rectangle_628" data-name="Rectangle 628" width="141.543" height="25.038" fill="gray"/>
    </clipPath>
  </defs>
  <g id="brand-icon4" transform="translate(0)" opacity="0.683">
    <g id="Group_303" data-name="Group 303" transform="translate(0 0)" clip-path="url(#clip-path)">
      <path id="Path_941" data-name="Path 941" d="M136.27,14.9a2.645,2.645,0,0,1,5.274,0,2.645,2.645,0,0,1-5.274,0m-9.927,2.98a3.774,3.774,0,0,1,7.525,0,3.774,3.774,0,0,1-7.525,0m1.8-9.173a2.645,2.645,0,0,1,5.274,0,2.645,2.645,0,0,1-5.274,0m-7.71-6.194a2.729,2.729,0,0,1,5.442,0,2.729,2.729,0,0,1-5.442,0m-2.553,8.523a3.572,3.572,0,0,1,7.122,0,3.572,3.572,0,0,1-7.122,0M115.24,21.173a4.2,4.2,0,0,1,8.365,0,4.2,4.2,0,0,1-8.365,0M111.466,3.147l-1.392,4.364-7.674,0-2.087,13.722-5.024.009L97.408,7.531l-5.7.009L93.1,3.176ZM22.2,4.634c1.227,1.193.88,2.839.883,4.517,0,0-5.981.029-5.99.052a1.193,1.193,0,0,0-1.3-1.329l-5.758.012c-1.64,0-3.206.521-3.511,2.174-.272,1.367-.561,3.315-.71,4.321-.246,1.786.375,2.564,1.833,2.561l5.617-.014a3.229,3.229,0,0,0,2.95-1.43,2.291,2.291,0,0,0,.406-1.091l5.6-.008c-.053,2.285-.817,4.947-3.266,6.064a15.266,15.266,0,0,1-5.65.908l-8.526.014c-1.348,0-3.464-.6-4.241-1.967a5.813,5.813,0,0,1-.416-3.738c.341-2,.954-5.347,1.421-7.815C1.978,5.915,3.831,3.313,9.261,3.3l8.747-.014c2.733,0,3.524.683,4.192,1.343M40.371,7.252c1.458,0,1.026,1.975.7,3.147-.251.776-.763.975-2.148.976l-7.248,0,.517-4.1Zm2.981-4a3.549,3.549,0,0,1,3.725,3.99c-.215,1.818-.353,2.523-.683,4.707-.216,1.428-2,2.08-2.526,2.259.563.308,1.95,1.052,1.879,2.22-.106,1.753-.5,3.7-.64,4.892l-5.6.009c-.177-1.35,1.319-4.633-.758-4.63l-7.765.023-.827,4.622-5.358.009s1.922-12.1,2.844-18.076ZM61.867,8.063l2.309,6.487-6.6.01Zm4.107-4.846,6.307,18.061-5.688.009-1.17-3.2H55.216l-2.141,3.223-5.665.009L59.268,3.229ZM90.635,3.18,89.242,7.544l-7.674,0L80.993,11.4l7.848-.012-1.508,4.157-7.024.011-.827,5.713-5.023.008L77.221,3.2Z" transform="translate(0 0)" fill="gray" fill-rule="evenodd"/>
    </g>
  </g>
</svg>
