<svg xmlns="http://www.w3.org/2000/svg" xmlns:xlink="http://www.w3.org/1999/xlink" width="70.854" height="78.639" viewBox="0 0 70.854 78.639">
  <defs>
    <clipPath id="clip-path">
      <rect id="Rectangle_629" data-name="Rectangle 629" width="70.854" height="78.639" fill="gray"/>
    </clipPath>
  </defs>
  <g id="brand-icon5" transform="translate(0)" opacity="0.683">
    <g id="Group_305" data-name="Group 305" transform="translate(0)" clip-path="url(#clip-path)">
      <path id="Path_942" data-name="Path 942" d="M92.69.546a5.175,5.175,0,0,1,4.747.557,5.059,5.059,0,0,1,2.168,4.278V16.839a4.916,4.916,0,0,1-2.08,4.015,5.1,5.1,0,0,1-8.088-4.337c0-3.78-.029-7.56,0-11.37A5.122,5.122,0,0,1,92.69.546" transform="translate(-77.328 -0.181)" fill="gray"/>
      <path id="Path_943" data-name="Path 943" d="M92.69.546a5.175,5.175,0,0,1,4.747.557,5.059,5.059,0,0,1,2.168,4.278V16.839a4.916,4.916,0,0,1-2.08,4.015,5.1,5.1,0,0,1-8.088-4.337c0-3.78-.029-7.56,0-11.37A5.122,5.122,0,0,1,92.69.546Z" transform="translate(-77.328 -0.181)" fill="gray"/>
      <path id="Path_944" data-name="Path 944" d="M356.686.288a5.073,5.073,0,0,1,5.773,2.051,5.6,5.6,0,0,1,.879,3.194c-.029,3.78,0,7.56-.029,11.37a5.093,5.093,0,0,1-9.963,1.114,8.147,8.147,0,0,1-.205-2.52V4.947A5.055,5.055,0,0,1,356.686.288" transform="translate(-305.368 -0.04)" fill="gray"/>
      <path id="Path_945" data-name="Path 945" d="M356.686.288a5.073,5.073,0,0,1,5.773,2.051,5.6,5.6,0,0,1,.879,3.194c-.029,3.78,0,7.56-.029,11.37a5.093,5.093,0,0,1-9.963,1.114,8.147,8.147,0,0,1-.205-2.52V4.947A5.055,5.055,0,0,1,356.686.288Z" transform="translate(-305.368 -0.04)" fill="gray"/>
      <path id="Path_946" data-name="Path 946" d="M183.183,175.381c4.044-.176,8.117,0,12.161-.088a5.1,5.1,0,0,1,3.839,8.762,5.4,5.4,0,0,1-3.839,1.436c-3.722,0-7.443.029-11.165-.029a5.024,5.024,0,0,1-4.161-2.2,5.155,5.155,0,0,1,.645-6.564,5.508,5.508,0,0,1,2.52-1.319" transform="translate(-154.898 -151.573)" fill="gray"/>
      <path id="Path_947" data-name="Path 947" d="M183.183,175.381c4.044-.176,8.117,0,12.161-.088a5.1,5.1,0,0,1,3.839,8.762,5.4,5.4,0,0,1-3.839,1.436c-3.722,0-7.443.029-11.165-.029a5.024,5.024,0,0,1-4.161-2.2,5.155,5.155,0,0,1,.645-6.564A5.508,5.508,0,0,1,183.183,175.381Z" transform="translate(-154.898 -151.573)" fill="gray"/>
      <path id="Path_948" data-name="Path 948" d="M92.908,265.861a5.126,5.126,0,0,1,6.593,4.425c.029,4.044,0,8.059,0,12.1a5.012,5.012,0,0,1-3.722,4.689,5.071,5.071,0,0,1-5.509-1.934,5.729,5.729,0,0,1-.967-3.37c.029-3.693,0-7.414.029-11.106a5.093,5.093,0,0,1,3.575-4.806" transform="translate(-77.224 -229.687)" fill="gray"/>
      <path id="Path_949" data-name="Path 949" d="M92.908,265.861a5.126,5.126,0,0,1,6.593,4.425c.029,4.044,0,8.059,0,12.1a5.012,5.012,0,0,1-3.722,4.689,5.071,5.071,0,0,1-5.509-1.934,5.729,5.729,0,0,1-.967-3.37c.029-3.693,0-7.414.029-11.106A5.093,5.093,0,0,1,92.908,265.861Z" transform="translate(-77.224 -229.687)" fill="gray"/>
      <path id="Path_950" data-name="Path 950" d="M356.8,265.911a5.077,5.077,0,0,1,6.506,4.337c.088,3.956.029,7.912.029,11.9a5.094,5.094,0,0,1-3.077,4.777,5.191,5.191,0,0,1-5.714-1.2,5.074,5.074,0,0,1-1.378-3.575V270.658a5.048,5.048,0,0,1,3.634-4.747" transform="translate(-305.395 -229.736)" fill="gray"/>
      <path id="Path_951" data-name="Path 951" d="M356.8,265.911a5.077,5.077,0,0,1,6.506,4.337c.088,3.956.029,7.912.029,11.9a5.094,5.094,0,0,1-3.077,4.777,5.191,5.191,0,0,1-5.714-1.2,5.074,5.074,0,0,1-1.378-3.575V270.658A5.048,5.048,0,0,1,356.8,265.911Z" transform="translate(-305.395 -229.736)" fill="gray"/>
      <path id="Path_952" data-name="Path 952" d="M330.891,507.94c.5-.029,1.026-.029,1.524-.029v1.26h-1.553c0-.41,0-.821.029-1.231" transform="translate(-286.108 -439.209)" fill="gray"/>
      <path id="Path_953" data-name="Path 953" d="M330.891,507.94c.5-.029,1.026-.029,1.524-.029v1.26h-1.553C330.862,508.761,330.862,508.35,330.891,507.94Z" transform="translate(-286.108 -439.209)" fill="gray"/>
      <path id="Path_954" data-name="Path 954" d="M348.192,507.94c.528-.029,1.026-.029,1.553-.029v1.26h-1.524c-.029-.41-.029-.821-.029-1.231" transform="translate(-301.094 -439.209)" fill="gray"/>
      <path id="Path_955" data-name="Path 955" d="M348.192,507.94c.528-.029,1.026-.029,1.553-.029v1.26h-1.524C348.192,508.761,348.192,508.35,348.192,507.94Z" transform="translate(-301.094 -439.209)" fill="gray"/>
      <path id="Path_956" data-name="Path 956" d="M.047,520.909H1.6c0,1.172-.029,2.315,0,3.458H5.322v-3.458H6.846c.029,2.7.029,5.392,0,8.059-.5,0-1.026,0-1.524.029v-3.545c-1.231.029-2.491,0-3.722,0-.029,1.172,0,2.344-.029,3.545-.5-.029-1-.029-1.524-.029Z" transform="translate(-0.041 -450.449)" fill="gray"/>
      <path id="Path_957" data-name="Path 957" d="M.047,520.909H1.6c0,1.172-.029,2.315,0,3.458H5.322v-3.458H6.846c.029,2.7.029,5.392,0,8.059-.5,0-1.026,0-1.524.029v-3.545c-1.231.029-2.491,0-3.722,0-.029,1.172,0,2.344-.029,3.545-.5-.029-1-.029-1.524-.029Z" transform="translate(-0.041 -450.449)" fill="gray"/>
      <path id="Path_958" data-name="Path 958" d="M77.605,528.968c1.172-2.667,2.345-5.363,3.517-8.059.41,0,.85,0,1.289.029,1.172,2.667,2.344,5.362,3.517,8.029-.557,0-1.114,0-1.641.029-.234-.615-.5-1.2-.762-1.787-1.2.029-2.374,0-3.575.029l-.7,1.758c-.557-.029-1.113-.029-1.641-.029" transform="translate(-67.108 -450.449)" fill="gray"/>
      <path id="Path_959" data-name="Path 959" d="M77.605,528.968c1.172-2.667,2.345-5.363,3.517-8.059.41,0,.85,0,1.289.029,1.172,2.667,2.344,5.362,3.517,8.029-.557,0-1.114,0-1.641.029-.234-.615-.5-1.2-.762-1.787-1.2.029-2.374,0-3.575.029l-.7,1.758C78.689,528.968,78.133,528.968,77.605,528.968Z" transform="translate(-67.108 -450.449)" fill="gray"/>
      <path id="Path_960" data-name="Path 960" d="M162.489,522.31c1.172-2.784,6.037-2.55,6.769.469h-1.641a2.032,2.032,0,0,0-3.575-.059,9.147,9.147,0,0,0-.059,3.341,1.987,1.987,0,0,0,3.194.732,2.514,2.514,0,0,0,.674-1.465c-.7-.029-1.377-.058-2.08-.058v-1.231h3.546a6.331,6.331,0,0,1-.352,2.872c-1.319,2.344-5.421,2.257-6.476-.264a13.46,13.46,0,0,1,0-4.337" transform="translate(-140.358 -449.974)" fill="gray"/>
      <path id="Path_961" data-name="Path 961" d="M162.489,522.31c1.172-2.784,6.037-2.55,6.769.469h-1.641a2.032,2.032,0,0,0-3.575-.059,9.147,9.147,0,0,0-.059,3.341,1.987,1.987,0,0,0,3.194.732,2.514,2.514,0,0,0,.674-1.465c-.7-.029-1.377-.058-2.08-.058v-1.231h3.546a6.331,6.331,0,0,1-.352,2.872c-1.319,2.344-5.421,2.257-6.476-.264A13.46,13.46,0,0,1,162.489,522.31Z" transform="translate(-140.358 -449.974)" fill="gray"/>
      <path id="Path_962" data-name="Path 962" d="M245.937,528.968v-8.029c.5-.029,1.026-.029,1.553-.029,0,2.315,0,4.6-.029,6.887,1.582.029,3.136,0,4.689,0,0,.41,0,.791.029,1.172-2.081,0-4.161.029-6.242,0" transform="translate(-212.671 -450.449)" fill="gray"/>
      <path id="Path_963" data-name="Path 963" d="M245.937,528.968v-8.029c.5-.029,1.026-.029,1.553-.029,0,2.315,0,4.6-.029,6.887,1.582.029,3.136,0,4.689,0,0,.41,0,.791.029,1.172C250.1,528.968,248.018,529,245.937,528.968Z" transform="translate(-212.671 -450.449)" fill="gray"/>
      <path id="Path_964" data-name="Path 964" d="M321.13,520.726c1.729-.791,4.308-.323,5.07,1.582a11.986,11.986,0,0,1,0,4.337c-1.055,2.608-5.509,2.608-6.593.029a12.783,12.783,0,0,1-.117-3.81,2.687,2.687,0,0,1,1.641-2.139" transform="translate(-276.201 -449.973)" fill="gray"/>
      <path id="Path_965" data-name="Path 965" d="M321.13,520.726c1.729-.791,4.308-.323,5.07,1.582a11.986,11.986,0,0,1,0,4.337c-1.055,2.608-5.509,2.608-6.593.029a12.783,12.783,0,0,1-.117-3.81A2.687,2.687,0,0,1,321.13,520.726Z" transform="translate(-276.201 -449.973)" fill="gray"/>
      <path id="Path_966" data-name="Path 966" d="M403.512,520.909c2.051,0,4.1,0,6.154.029-.029.41-.029.82-.029,1.231h-4.689v2.256q2.022.044,4.044,0V525.6c-1.348.029-2.7.029-4.015,0-.029,1.143-.029,2.256,0,3.4-.5-.029-1-.029-1.465-.029-.029-2.667-.029-5.363,0-8.059" transform="translate(-348.913 -450.449)" fill="gray"/>
      <path id="Path_967" data-name="Path 967" d="M403.512,520.909c2.051,0,4.1,0,6.154.029-.029.41-.029.82-.029,1.231h-4.689v2.256q2.022.044,4.044,0V525.6c-1.348.029-2.7.029-4.015,0-.029,1.143-.029,2.256,0,3.4-.5-.029-1-.029-1.465-.029C403.483,526.3,403.483,523.6,403.512,520.909Z" transform="translate(-348.913 -450.449)" fill="gray"/>
      <path id="Path_968" data-name="Path 968" d="M472.149,520.934c1.67-1,3.78-.556,5.421.293-.293.352-.615.7-.908,1.055-1.055-.469-2.4-.938-3.487-.293a.86.86,0,0,0,.117,1.553c1.143.44,2.491.176,3.546.908a2.16,2.16,0,0,1,.7,2.784,2.476,2.476,0,0,1-1.729,1.2,6.812,6.812,0,0,1-5.216-.938c.352-.322.7-.645,1.055-1,1.231.674,2.814,1.172,4.132.469a.9.9,0,0,0-.088-1.612c-1.231-.41-2.7-.117-3.751-.967a2.159,2.159,0,0,1,.205-3.458" transform="translate(-406.941 -449.976)" fill="gray"/>
      <path id="Path_969" data-name="Path 969" d="M472.149,520.934c1.67-1,3.78-.556,5.421.293-.293.352-.615.7-.908,1.055-1.055-.469-2.4-.938-3.487-.293a.86.86,0,0,0,.117,1.553c1.143.44,2.491.176,3.546.908a2.16,2.16,0,0,1,.7,2.784,2.476,2.476,0,0,1-1.729,1.2,6.812,6.812,0,0,1-5.216-.938c.352-.322.7-.645,1.055-1,1.231.674,2.814,1.172,4.132.469a.9.9,0,0,0-.088-1.612c-1.231-.41-2.7-.117-3.751-.967A2.159,2.159,0,0,1,472.149,520.934Z" transform="translate(-406.941 -449.976)" fill="gray"/>
      <path id="Path_970" data-name="Path 970" d="M332.185,530.067a1.9,1.9,0,0,1,2.432,1.143,8.385,8.385,0,0,1-.059,3.311,2.018,2.018,0,0,1-3.546.059,10.03,10.03,0,0,1-.117-3.106,1.683,1.683,0,0,1,1.289-1.406" transform="translate(-286.083 -458.288)" fill="gray"/>
      <path id="Path_971" data-name="Path 971" d="M332.185,530.067a1.9,1.9,0,0,1,2.432,1.143,8.385,8.385,0,0,1-.059,3.311,2.018,2.018,0,0,1-3.546.059,10.03,10.03,0,0,1-.117-3.106A1.683,1.683,0,0,1,332.185,530.067Z" transform="translate(-286.083 -458.288)" fill="#f0efee"/>
      <path id="Path_972" data-name="Path 972" d="M98.4,537.465c.439-1.114.908-2.227,1.348-3.341l1.319,3.341c-.879.029-1.758.029-2.667,0" transform="translate(-85.093 -461.876)" fill="gray"/>
      <path id="Path_973" data-name="Path 973" d="M98.4,537.465c.439-1.114.908-2.227,1.348-3.341l1.319,3.341C100.191,537.494,99.311,537.494,98.4,537.465Z" transform="translate(-85.093 -461.876)" fill="#f0efee"/>
    </g>
  </g>
</svg>
