<svg xmlns="http://www.w3.org/2000/svg" xmlns:xlink="http://www.w3.org/1999/xlink" width="138.456" height="42.826" viewBox="0 0 138.456 42.826">
  <defs>
    <clipPath id="clip-path">
      <rect id="Rectangle_627" data-name="Rectangle 627" width="138.456" height="42.826" fill="gray"/>
    </clipPath>
  </defs>
  <g id="brand-icon3" transform="translate(0)" opacity="0.683">
    <g id="Group_301" data-name="Group 301" transform="translate(0 0)" clip-path="url(#clip-path)">
      <path id="Path_935" data-name="Path 935" d="M264.305,8.4S261.712.17,254.912.17c-6.531,0-9.4,8.231-9.4,8.231H236s6.948,5.457,18.908,5.457S273.819,8.4,273.819,8.4Zm-1.657.945c-.143.805-2.776,2.825-7.72,2.825s-7.682-1.644-7.811-2.844c-.159-1.478,3.313-7.515,7.811-7.515,4.776,0,8,5.961,7.72,7.534" transform="translate(-136.356 -0.098)" fill="gray"/>
      <path id="Path_936" data-name="Path 936" d="M248.258,37.1c-6.013-10.337-14.225-13.6-14.225-13.6l4.785,8.223s-5.811,6.382-2.392,12.259c3.285,5.646,11.839,3.982,11.839,3.982l4.783,8.223s1.224-8.75-4.789-19.087m0,9.015c-1.2.882-8.162.915-10.422-2.972-2.4-4.129,1.126-9.914,2.628-10.462.768-.281,3.837.979,6.324,5.254s2.443,7.465,1.47,8.18" transform="translate(-135.217 -13.58)" fill="gray"/>
      <path id="Path_937" data-name="Path 937" d="M301.362,23.5s-8.21,3.263-14.224,13.6-4.791,19.087-4.791,19.087l4.784-8.223s8.554,1.664,11.839-3.982c3.42-5.877-2.39-12.259-2.39-12.259Zm-3.8,19.642c-2.261,3.887-9.226,3.854-10.423,2.972-.973-.715-1.018-3.9,1.471-8.18s5.556-5.535,6.322-5.254c1.5.548,5.032,6.333,2.63,10.462" transform="translate(-163.072 -13.58)" fill="gray"/>
      <path id="Path_938" data-name="Path 938" d="M108.724,26.7H89.769c-3.972,0-4.513,1.625-4.513,4.213v5.055c0,1.564.662,3.129,3.67,3.129h9.99a2.118,2.118,0,0,0,2.226-2.708H92.173V30.006h16.551v6.138c0,4.634-.722,9.862-10.351,9.862H89.167c-5.416,0-11.193-1.739-11.193-8.359V29.164c0-4.634,1.985-9.441,10.41-9.441H99.157c10.049,0,9.567,6.973,9.567,6.973" transform="translate(-45.051 -11.395)" fill="gray"/>
      <path id="Path_939" data-name="Path 939" d="M164.78,19.724h-7.522V37.108c0,4.934,2.588,8.9,11.374,8.9h8.437c5.937,0,10.579-1.378,10.579-10.223V19.724h-7.462V34.7c0,3.43-.241,4.754-4.031,4.754h-6.861c-2.346,0-4.522.18-4.522-4.092s.009-15.639.009-15.639" transform="translate(-90.859 -11.396)" fill="gray"/>
      <path id="Path_940" data-name="Path 940" d="M20.8,19.688H9.468C1.8,19.688,0,24.39,0,29.906V45.986H7.512v-5.91H22.757v5.91h7.512V29.906c0-5.516-1.8-10.218-9.468-10.218m1.952,13.956H7.478V29.826c0-2.661,1.29-3.481,3.481-3.481h8.411c2.23,0,3.384.94,3.384,3.383Z" transform="translate(0 -11.375)" fill="gray"/>
    </g>
  </g>
</svg>
