<svg xmlns="http://www.w3.org/2000/svg" width="101.48" height="38.063" viewBox="0 0 101.48 38.063">
  <path id="brand-icon1" d="M101.034,7.81A2.11,2.11,0,0,0,98.8,7.078c-.228.063-22.739,6.36-36.749,9.371A111.171,111.171,0,0,1,45.6,19.025h-.013c-8.432.617-11.228-.677-11.519-1.1,0-.017.19-1.9,6.914-5.984a2.114,2.114,0,0,0-1.641-3.848L1.571,17.959a2.119,2.119,0,0,0,.135,4.123c.123.025,12.1,2.313,19.241,4.449,4.774,1.434,16.222,5.958,19.381,17a2.123,2.123,0,0,0,2.034,1.527H52.11a2.114,2.114,0,0,0,2.114-2.114c0-15.6,17.863-20.392,26.447-22.7L97.1,16.1a2.114,2.114,0,0,0,1.328-1.011l2.783-4.931a2.119,2.119,0,0,0-.173-2.351ZM45.822,34.177l-.3-.292-5.2-5.29,5.2-.44,5.121-.44Z" transform="translate(-0.003 -6.999)" fill="gray" opacity="0.683"/>
</svg>
