<svg xmlns="http://www.w3.org/2000/svg" width="24.125" height="24.111" viewBox="0 0 24.125 24.111">
  <g id="offer-icon" transform="translate(-9.875 -11)">
    <path id="Path_921" data-name="Path 921" d="M20.255,35.111a2.727,2.727,0,0,1-1.947-.8l-7.617-7.617a2.731,2.731,0,0,1,0-3.894L20.885,12.6A6.078,6.078,0,0,1,24.722,11h6.529A2.787,2.787,0,0,1,34,13.749v6.529a6.078,6.078,0,0,1-1.6,3.837L22.2,34.309a2.727,2.727,0,0,1-1.947.8Zm4.467-22.393a4.506,4.506,0,0,0-2.634,1.088L11.894,24a1,1,0,0,0,0,1.432l7.617,7.617a1,1,0,0,0,1.432,0L31.136,22.855a4.36,4.36,0,0,0,1.088-2.634V13.692a1.027,1.027,0,0,0-1.031-1.031H24.722Z" transform="translate(0)" fill="#fff"/>
    <path id="Path_922" data-name="Path 922" d="M37.479,23.858a3.379,3.379,0,1,1,3.379-3.379A3.385,3.385,0,0,1,37.479,23.858Zm0-5.154a1.775,1.775,0,1,0,1.775,1.775A1.784,1.784,0,0,0,37.479,18.7Z" transform="translate(-10.351 -2.607)" fill="#fff"/>
  </g>
</svg>
