<svg xmlns="http://www.w3.org/2000/svg" xmlns:xlink="http://www.w3.org/1999/xlink" width="56.684" height="61.837" viewBox="0 0 56.684 61.837">
  <defs>
    <clipPath id="clip-path">
      <rect id="Rectangle_646" data-name="Rectangle 646" width="56.684" height="61.837" fill="none" stroke="#1f1e1e" stroke-width="2.2"/>
    </clipPath>
  </defs>
  <g id="shipping3" clip-path="url(#clip-path)">
    <path id="Path_1033" data-name="Path 1033" d="M12,6.684l8.266,5.5a11.345,11.345,0,1,0,1.237-5.5" transform="translate(12.735 0.531)" fill="none" stroke="#7aba05" stroke-linecap="round" stroke-linejoin="round" stroke-width="2.2"/>
    <line id="Line_10" data-name="Line 10" y1="0.206" transform="translate(44.316 7.215)" fill="none" stroke="#7aba05" stroke-linecap="round" stroke-linejoin="round" stroke-width="2.2"/>
    <line id="Line_11" data-name="Line 11" y1="6.184" transform="translate(44.316 11.337)" fill="none" stroke="#7aba05" stroke-linecap="round" stroke-linejoin="round" stroke-width="2.2"/>
    <line id="Line_12" data-name="Line 12" x1="1.031" transform="translate(43.286 11.337)" fill="none" stroke="#7aba05" stroke-linecap="round" stroke-linejoin="round" stroke-width="2.2"/>
    <line id="Line_13" data-name="Line 13" x2="0.206" transform="translate(44.316 60.806)" fill="none" stroke="#1f1e1e" stroke-linecap="round" stroke-linejoin="round" stroke-width="2.2"/>
    <path id="Path_1034" data-name="Path 1034" d="M.5,52.847,4.622,28.112v0a2.061,2.061,0,1,1-4.122,0v-13.4A7.214,7.214,0,0,1,7.714,7.5h5.11A8.247,8.247,0,0,1,18.3,9.582l6.347,5.644a2.065,2.065,0,0,0,1.369.519h4.37a2.061,2.061,0,1,1,0,4.122h-4.2a6.173,6.173,0,0,1-3.593-1.152l-5.6-4V52.847H39.663" transform="translate(0.531 7.959)" fill="none" stroke="#1f1e1e" stroke-linecap="round" stroke-linejoin="round" stroke-width="2.2"/>
    <path id="Path_1035" data-name="Path 1035" d="M10.745,41.7,8.684,18,2.5,41.7" transform="translate(2.653 19.102)" fill="none" stroke="#1f1e1e" stroke-linecap="round" stroke-linejoin="round" stroke-width="2.2"/>
    <circle id="Ellipse_39" data-name="Ellipse 39" cx="5.153" cy="5.153" r="5.153" transform="translate(5.153 1.031)" fill="none" stroke="#1f1e1e" stroke-linecap="round" stroke-linejoin="round" stroke-width="2.2"/>
  </g>
</svg>
